<svg width="24" height="24" viewBox="0 0 24 24" fill="none" xmlns="http://www.w3.org/2000/svg">
<path d="M19.95 5.53601L16.465 2.05101C15.143 0.729007 13.385 0.00100741 11.515 0.00100741H7C4.243 7.41426e-06 2 2.24301 2 5.00001V19C2 21.757 4.243 24 7 24H17C19.757 24 22 21.757 22 19V10.485C22 8.61501 21.272 6.85801 19.95 5.53501V5.53601ZM18.536 6.95001C18.854 7.26801 19.123 7.62101 19.341 8.00001H15C14.449 8.00001 14 7.55101 14 7.00001V2.65901C14.379 2.87701 14.733 3.14601 15.05 3.46401L18.535 6.94901L18.536 6.95001ZM20 19C20 20.654 18.654 22 17 22H7C5.346 22 4 20.654 4 19V5.00001C4 3.34601 5.346 2.00001 7 2.00001H11.515C11.678 2.00001 11.84 2.00801 12 2.02301V7.00001C12 8.65401 13.346 10 15 10H19.977C19.992 10.16 20 10.322 20 10.485V19ZM15.5 13H8.5C7.122 13 6 14.122 6 15.5V17.5C6 18.878 7.122 20 8.5 20H15.5C16.878 20 18 18.878 18 17.5V15.5C18 14.122 16.878 13 15.5 13ZM16 17.5C16 17.776 15.776 18 15.5 18H8.5C8.224 18 8 17.776 8 17.5V15.5C8 15.224 8.224 15 8.5 15H15.5C15.776 15 16 15.224 16 15.5V17.5ZM6 10C6 9.44801 6.448 9.00001 7 9.00001H9C9.552 9.00001 10 9.44801 10 10C10 10.552 9.552 11 9 11H7C6.448 11 6 10.552 6 10ZM6 6.00001C6 5.44801 6.448 5.00001 7 5.00001H9C9.552 5.00001 10 5.44801 10 6.00001C10 6.55201 9.552 7.00001 9 7.00001H7C6.448 7.00001 6 6.55201 6 6.00001Z" fill="#F5F5F5"/>
</svg>
