<svg width="24" height="24" viewBox="0 0 24 24" fill="none" xmlns="http://www.w3.org/2000/svg">
<g clip-path="url(#clip0_103_1730)">
<path d="M19.95 5.53599L16.464 2.04999C15.8156 1.39807 15.0443 0.881218 14.1948 0.529337C13.3453 0.177457 12.4345 -0.00246108 11.515 -5.72142e-06H7C5.6744 0.00158214 4.40356 0.528876 3.46622 1.46621C2.52888 2.40355 2.00159 3.6744 2 4.99999V19C2.00159 20.3256 2.52888 21.5964 3.46622 22.5338C4.40356 23.4711 5.6744 23.9984 7 24H17C18.3256 23.9984 19.5964 23.4711 20.5338 22.5338C21.4711 21.5964 21.9984 20.3256 22 19V10.485C22.0025 9.56551 21.8225 8.65467 21.4707 7.80518C21.1188 6.95569 20.6019 6.18442 19.95 5.53599ZM18.536 6.95C18.841 7.2644 19.1036 7.6174 19.317 8H15C14.7348 8 14.4804 7.89464 14.2929 7.7071C14.1054 7.51957 14 7.26521 14 7V2.68299C14.3826 2.89638 14.7356 3.15894 15.05 3.46399L18.536 6.95ZM20 19C20 19.7956 19.6839 20.5587 19.1213 21.1213C18.5587 21.6839 17.7956 22 17 22H7C6.20435 22 5.44129 21.6839 4.87868 21.1213C4.31607 20.5587 4 19.7956 4 19V4.99999C4 4.20435 4.31607 3.44128 4.87868 2.87867C5.44129 2.31607 6.20435 1.99999 7 1.99999H11.515C11.68 1.99999 11.838 2.03199 12 2.04699V7C12 7.79564 12.3161 8.55871 12.8787 9.12132C13.4413 9.68393 14.2043 10 15 10H19.953C19.968 10.162 20 10.32 20 10.485V19ZM16.724 13.311C16.9066 13.5031 17.0055 13.7598 16.9989 14.0247C16.9923 14.2897 16.8809 14.5412 16.689 14.724L13.1 18.138C12.5358 18.6933 11.7751 19.0031 10.9835 18.9999C10.1919 18.9967 9.43367 18.6808 8.874 18.121L7.334 16.747C7.13588 16.5704 7.01605 16.3223 7.00086 16.0573C6.99334 15.9261 7.01173 15.7947 7.05499 15.6706C7.09826 15.5465 7.16554 15.4321 7.253 15.334C7.34046 15.2359 7.44639 15.156 7.56473 15.0988C7.68307 15.0417 7.81151 15.0084 7.94272 15.0009C8.20771 14.9857 8.46788 15.0764 8.666 15.253L10.251 16.667C10.3417 16.7689 10.4524 16.8511 10.5761 16.9087C10.6998 16.9662 10.834 16.9978 10.9704 17.0016C11.1067 17.0053 11.2425 16.9811 11.3691 16.9305C11.4958 16.8798 11.6108 16.8038 11.707 16.707L15.307 13.276C15.4022 13.185 15.5144 13.1137 15.6373 13.0661C15.7601 13.0186 15.8911 12.9958 16.0228 12.9991C16.1544 13.0023 16.2842 13.0316 16.4045 13.0851C16.5248 13.1386 16.6334 13.2154 16.724 13.311Z" fill="#F5F5F5"/>
</g>
<defs>
<clipPath id="clip0_103_1730">
<rect width="24" height="24" fill="white"/>
</clipPath>
</defs>
</svg>
